<?xml version="1.0" encoding="UTF-8" standalone="no" ?>
<!DOCTYPE svg PUBLIC "-//W3C//DTD SVG 1.1//EN" "http://www.w3.org/Graphics/SVG/1.1/DTD/svg11.dtd">
<svg xmlns="http://www.w3.org/2000/svg" xmlns:xlink="http://www.w3.org/1999/xlink" version="1.1" width="1280" height="1024" viewBox="0 0 1280 1024" xml:space="preserve">
<desc>Created with Fabric.js 3.6.3</desc>
<defs>
</defs>
<g transform="matrix(1.9692780337941629 0 0 1.9692780337941629 640.0153846153846 512.012312418764)" id="background-logo"  >
<rect style="stroke: none; stroke-width: 1; stroke-dasharray: none; stroke-linecap: butt; stroke-dashoffset: 0; stroke-linejoin: miter; stroke-miterlimit: 4; fill: rgb(249,251,255); fill-rule: nonzero; opacity: 1;"  paint-order="stroke"  x="-325" y="-260" rx="0" ry="0" width="650" height="520" />
</g>
<g transform="matrix(1.9692780337941629 0 0 1.9692780337941629 640.0153846153846 359.943578533273)" id="logo-logo"  >
<g style=""  paint-order="stroke"   >
		<g transform="matrix(1.5880931634614646 0 0 -1.5880931634614646 0.000635237265385058 105.98830546886188)"  >
<path style="stroke: none; stroke-width: 1; stroke-dasharray: none; stroke-linecap: butt; stroke-dashoffset: 0; stroke-linejoin: miter; stroke-miterlimit: 4; fill: rgb(0,174,239); fill-rule: nonzero; opacity: 1;"  paint-order="stroke"  transform=" translate(-0.009499999999995623, -3.9845000000000006)" d="m 0 0 l 36.6 21.117 l 5.692 -3.282 V 11.252 L 0 -13.148 l -42.273 24.4 v 6.583 l 5.691 3.282 z" stroke-linecap="round" />
</g>
		<g transform="matrix(1.5880931634614646 0 0 -1.5880931634614646 116.86634661528205 43.99216574433689)"  >
<path style="stroke: none; stroke-width: 1; stroke-dasharray: none; stroke-linecap: butt; stroke-dashoffset: 0; stroke-linejoin: miter; stroke-miterlimit: 4; fill: rgb(0,174,239); fill-rule: nonzero; opacity: 1;"  paint-order="stroke"  transform=" translate(-12.333000000000002, 20.8045)" d="m 0 0 l 11.384 -6.565 l 7.589 -4.383 l 11.384 -6.565 v -6.584 L 18.973 -30.661 L 11.384 -35.044 L 0 -41.609 v 6.565 l -5.691 3.282 l 11.364 6.583 l 7.589 4.383 l -7.589 4.364 L -5.691 -9.848 L 0 -6.565 Z" stroke-linecap="round" />
</g>
		<g transform="matrix(1.5880931634614646 0 0 -1.5880931634614646 -116.86555256870031 43.9928009816023)"  >
<path style="stroke: none; stroke-width: 1; stroke-dasharray: none; stroke-linecap: butt; stroke-dashoffset: 0; stroke-linejoin: miter; stroke-miterlimit: 4; fill: rgb(0,174,239); fill-rule: nonzero; opacity: 1;"  paint-order="stroke"  transform=" translate(12.3325, 20.823500000000003)" d="m 0 0 v -6.584 l 5.692 -3.282 l -11.364 -6.584 l -7.59 -4.364 l 7.59 -4.383 L 5.692 -31.78 L 0 -35.063 v -6.584 l -11.383 6.584 l -7.59 4.383 l -11.384 6.565 v 6.584 l 11.384 6.564 l 7.59 4.383 z" stroke-linecap="round" />
</g>
		<g transform="matrix(1.5880931634614646 0 0 -1.5880931634614646 -0.014292838471192226 65.97439250365417)"  >
<path style="stroke: none; stroke-width: 1; stroke-dasharray: none; stroke-linecap: butt; stroke-dashoffset: 0; stroke-linejoin: miter; stroke-miterlimit: 4; fill: rgb(27,117,188); fill-rule: nonzero; opacity: 1;"  paint-order="stroke"  transform=" translate(36.6, 13.850500000000004)" d="M 0 0 L 11.384 6.565 L 22.749 0 L 11.364 -6.583 l -7.59 -4.383 l -11.382 -6.565 l -28.993 -16.735 l -28.991 16.735 l -11.384 6.565 l -7.589 4.383 L -95.949 0 L -84.565 6.565 L -73.182 0 l 7.59 -4.383 l 11.384 -6.583 l 17.608 -10.17 l 17.626 10.17 l 11.384 6.583 z" stroke-linecap="round" />
</g>
		<g transform="matrix(1.5880931634614646 0 0 -1.5880931634614646 -0.00015880931636047535 -53.302520724446055)"  >
<path style="stroke: none; stroke-width: 1; stroke-dasharray: none; stroke-linecap: butt; stroke-dashoffset: 0; stroke-linejoin: miter; stroke-miterlimit: 4; fill: rgb(11,60,96); fill-rule: nonzero; opacity: 1;"  paint-order="stroke"  transform=" translate(-0.008999999999993236, 50.30799999999999)" d="m 0 0 l 53.675 -30.984 v -61.967 l -5.711 -3.282 l -7.57 -4.383 l -11.384 6.564 l 7.59 4.383 l 5.692 3.283 v 48.819 L 0 -13.148 L -42.273 -37.568 v -48.818 l 5.691 -3.283 l 7.59 -4.383 l -11.384 -6.564 l -7.589 4.383 l -5.692 3.282 v 61.967 z" stroke-linecap="round" />
</g>
		<g transform="matrix(1.5880931634614646 0 0 -1.5880931634614646 0.0007940465816886899 45.107801191668585)"  >
<path style="stroke: none; stroke-width: 1; stroke-dasharray: none; stroke-linecap: butt; stroke-dashoffset: 0; stroke-linejoin: miter; stroke-miterlimit: 4; fill: rgb(0,90,165); fill-rule: nonzero; opacity: 1;"  paint-order="stroke"  transform=" translate(10.027000000000001, 7.2765)" d="M 0 0 L 7.59 4.383 L 18.974 -2.202 L 11.385 -6.565 L 0 -13.148 l -10.037 -5.788 l -10.019 5.788 l -11.384 6.583 l -7.588 4.364 l 11.383 6.584 l 7.59 -4.383 l 10.017 -5.787 z" stroke-linecap="round" />
</g>
</g>
</g>
<g transform="matrix(1.9692780337941629 0 0 1.9692780337941629 641.5888377643861 729.8332078422316)" id="text-logo-path"  >
<path style="stroke: none; stroke-width: 0; stroke-dasharray: none; stroke-linecap: butt; stroke-dashoffset: 0; stroke-linejoin: miter; stroke-miterlimit: 4; fill: rgb(11,60,96); fill-rule: nonzero; opacity: 1;"  paint-order="stroke"  transform=" translate(-62.51, 32.71)" d="M 14.76 0 L 4.14 0 Q 3.76 0 3.76 -0.47 L 3.76 -0.47 L 3.95 -65.05 Q 3.95 -65.42 4.32 -65.42 L 4.32 -65.42 L 23.31 -65.42 Q 28.39 -65.42 32.66 -62.93 Q 36.94 -60.44 39.48 -56.26 Q 42.02 -52.08 42.02 -46.81 L 42.02 -46.81 Q 42.02 -43.33 40.98 -40.56 Q 39.95 -37.79 38.54 -35.86 Q 37.13 -33.93 36 -32.99 L 36 -32.99 Q 41.08 -27.35 41.08 -19.74 L 41.08 -19.74 L 41.17 -0.47 Q 41.17 0 40.7 0 L 40.7 0 L 30.08 0 Q 29.7 0 29.7 -0.28 L 29.7 -0.28 L 29.7 -19.74 Q 29.7 -23.12 27.31 -25.61 Q 24.91 -28.11 21.43 -28.11 L 21.43 -28.11 L 15.23 -28.11 L 15.13 -0.47 Q 15.13 0 14.76 0 L 14.76 0 Z M 15.23 -54.14 L 15.23 -39.39 L 23.31 -39.39 Q 26.23 -39.39 28.48 -41.55 Q 30.74 -43.71 30.74 -46.81 L 30.74 -46.81 Q 30.74 -49.82 28.53 -51.98 Q 26.32 -54.14 23.31 -54.14 L 23.31 -54.14 L 15.23 -54.14 Z M 45.87 -0.47 L 45.87 -0.47 L 57.53 -65.05 Q 57.62 -65.42 58 -65.42 L 58 -65.42 L 71.63 -65.42 Q 72 -65.42 72.1 -65.05 L 72.1 -65.05 L 83.28 -0.47 Q 83.38 0 82.91 0 L 82.91 0 L 72.47 0 Q 72.1 0 72 -0.47 L 72 -0.47 L 70.97 -7.33 L 58.19 -7.33 L 57.15 -0.47 Q 57.06 0 56.68 0 L 56.68 0 L 46.25 0 Q 45.87 0 45.87 -0.47 Z M 64.3 -43.8 L 60.07 -17.39 L 69.09 -17.39 L 65.24 -43.8 L 64.67 -47.28 L 64.3 -43.8 Z M 120.79 0 L 85.73 0 Q 85.26 0 85.26 -0.47 L 85.26 -0.47 L 85.35 -10.72 L 108.38 -54.71 L 86.57 -54.71 Q 86.2 -54.71 86.2 -55.08 L 86.2 -55.08 L 86.2 -64.95 Q 86.2 -65.42 86.57 -65.42 L 86.57 -65.42 L 120.6 -65.42 Q 121.07 -65.42 121.07 -64.95 L 121.07 -64.95 L 121.07 -54.8 L 98.14 -11 L 120.79 -11 Q 121.17 -11 121.17 -10.53 L 121.17 -10.53 L 121.26 -0.47 Q 121.26 0 120.79 0 L 120.79 0 Z" stroke-linecap="round" />
</g>
<g transform="matrix(1.9692780337941629 0 0 1.9692780337941629 640.2701984234683 873.2080902651618)" id="tagline-2ff213d9-1b47-4ce0-a10e-5e696d20f4be-logo-path"  >
<path style="stroke: none; stroke-width: 0; stroke-dasharray: none; stroke-linecap: butt; stroke-dashoffset: 0; stroke-linejoin: miter; stroke-miterlimit: 4; fill: rgb(255,255,255); fill-rule: nonzero; opacity: 1;"  paint-order="stroke"  transform=" translate(-149.97, 14.75)" d="M 21.22 0 L 13.2 0 Q 4.14 0 4.14 -9.06 L 4.14 -9.06 L 4.14 -11.9 L 9.06 -14.23 L 9.32 -14.23 L 9.32 -9.06 Q 9.32 -4.66 13.2 -4.66 L 13.2 -4.66 L 21.22 -4.66 Q 25.1 -4.66 25.1 -9.06 L 25.1 -9.06 L 25.1 -14.49 Q 25.1 -18.89 21.22 -18.89 L 21.22 -18.89 L 14.23 -18.89 Q 6.47 -18.89 6.47 -26.66 L 6.47 -26.66 L 6.47 -31.31 Q 6.47 -39.08 14.23 -39.08 L 14.23 -39.08 L 20.19 -39.08 Q 27.95 -39.08 27.95 -31.31 L 27.95 -31.31 L 27.95 -29.94 L 23.03 -27.61 L 22.77 -27.61 L 22.77 -31.31 Q 22.77 -34.42 20.19 -34.42 L 20.19 -34.42 L 14.23 -34.42 Q 11.65 -34.42 11.65 -31.31 L 11.65 -31.31 L 11.65 -26.66 Q 11.65 -23.55 14.23 -23.55 L 14.23 -23.55 L 21.22 -23.55 Q 30.28 -23.55 30.28 -14.49 L 30.28 -14.49 L 30.28 -9.06 Q 30.28 0 21.22 0 L 21.22 0 Z M 39.85 1.04 L 39.59 1.04 L 39.59 -37.78 L 44.51 -40.11 L 44.77 -40.11 L 44.77 -1.29 L 39.85 1.04 Z M 61.59 -4.66 L 61.59 -4.66 L 67.54 -4.66 Q 70.13 -4.66 70.13 -7.76 L 70.13 -7.76 L 70.13 -20.7 Q 70.13 -23.81 67.54 -23.81 L 67.54 -23.81 L 61.59 -23.81 Q 59 -23.81 59 -20.7 L 59 -20.7 L 59 -7.76 Q 59 -4.66 61.59 -4.66 Z M 67.54 0 L 61.59 0 Q 53.83 0 53.83 -7.76 L 53.83 -7.76 L 53.83 -20.7 Q 53.83 -28.47 61.59 -28.47 L 61.59 -28.47 L 67.54 -28.47 Q 75.31 -28.47 75.31 -20.7 L 75.31 -20.7 L 75.31 -7.76 Q 75.31 0 67.54 0 L 67.54 0 Z M 96.79 0 L 90.83 0 Q 83.07 0 83.07 -7.76 L 83.07 -7.76 L 83.07 -20.7 Q 83.07 -28.47 90.83 -28.47 L 90.83 -28.47 L 96.79 -28.47 Q 104.55 -28.47 104.55 -20.7 L 104.55 -20.7 L 104.55 2.85 Q 104.55 10.61 96.79 10.61 L 96.79 10.61 L 85.76 10.61 L 85.76 10.35 L 87.83 5.95 L 96.79 5.95 Q 99.38 5.95 99.38 2.85 L 99.38 2.85 L 99.38 -0.78 Q 98.29 0 96.79 0 L 96.79 0 Z M 90.83 -4.66 L 90.83 -4.66 L 96.79 -4.66 Q 99.38 -4.66 99.38 -7.76 L 99.38 -7.76 L 99.38 -20.7 Q 99.38 -23.81 96.79 -23.81 L 96.79 -23.81 L 90.83 -23.81 Q 88.25 -23.81 88.25 -20.7 L 88.25 -20.7 L 88.25 -7.76 Q 88.25 -4.66 90.83 -4.66 Z M 119.56 -4.66 L 119.56 -4.66 L 125 -4.66 Q 127.58 -4.66 127.58 -7.76 L 127.58 -7.76 L 127.58 -11.31 Q 127.58 -14.41 125 -14.41 L 125 -14.41 L 119.56 -14.41 Q 116.97 -14.41 116.97 -11.31 L 116.97 -11.31 L 116.97 -7.76 Q 116.97 -4.66 119.56 -4.66 Z M 125 0 L 119.56 0 Q 111.8 0 111.8 -7.76 L 111.8 -7.76 L 111.8 -11.31 Q 111.8 -19.07 119.56 -19.07 L 119.56 -19.07 L 125 -19.07 Q 126.34 -19.07 127.58 -18.3 L 127.58 -18.3 L 127.58 -20.7 Q 127.58 -23.81 125 -23.81 L 125 -23.81 L 115.73 -23.81 L 115.73 -24.07 L 117.8 -28.47 L 125 -28.47 Q 132.76 -28.47 132.76 -20.7 L 132.76 -20.7 L 132.76 -1.29 L 127.84 1.04 L 127.58 1.04 L 127.58 -0.78 Q 126.6 0 125 0 L 125 0 Z M 140.78 1.04 L 140.52 1.04 L 140.52 -20.7 Q 140.52 -28.47 148.29 -28.47 L 148.29 -28.47 L 154.24 -28.47 Q 162 -28.47 162 -20.7 L 162 -20.7 L 162 -1.29 L 157.08 1.04 L 156.83 1.04 L 156.83 -20.7 Q 156.83 -23.81 154.24 -23.81 L 154.24 -23.81 L 148.29 -23.81 Q 145.7 -23.81 145.7 -20.7 L 145.7 -20.7 L 145.7 -1.29 L 140.78 1.04 Z M 192.02 1.04 L 191.76 1.04 L 191.76 -37.78 L 196.68 -40.11 L 196.94 -40.11 L 196.94 -21.89 L 212.21 -21.89 L 212.21 -37.78 L 217.12 -40.11 L 217.38 -40.11 L 217.38 -1.29 L 212.47 1.04 L 212.21 1.04 L 212.21 -17.18 L 196.94 -17.18 L 196.94 -1.29 L 192.02 1.04 Z M 240.16 0 L 234.2 0 Q 226.44 0 226.44 -7.76 L 226.44 -7.76 L 226.44 -20.7 Q 226.44 -28.47 234.2 -28.47 L 234.2 -28.47 L 240.16 -28.47 Q 247.92 -28.47 247.92 -20.7 L 247.92 -20.7 L 247.92 -19.33 L 231.69 -6.78 Q 232.06 -4.66 234.2 -4.66 L 234.2 -4.66 L 240.16 -4.66 Q 242.74 -4.66 242.74 -7.76 L 242.74 -7.76 L 242.74 -9.14 L 247.66 -11.46 L 247.92 -11.46 L 247.92 -7.76 Q 247.92 0 240.16 0 L 240.16 0 Z M 231.62 -20.7 L 231.62 -12.19 L 242.72 -21.14 Q 242.56 -23.81 240.16 -23.81 L 240.16 -23.81 L 234.2 -23.81 Q 231.62 -23.81 231.62 -20.7 L 231.62 -20.7 Z M 255.94 1.04 L 255.68 1.04 L 255.68 -20.7 Q 255.68 -28.47 263.45 -28.47 L 263.45 -28.47 L 269.92 -28.47 L 269.92 -28.21 L 267.85 -23.81 L 263.45 -23.81 Q 260.86 -23.81 260.86 -20.7 L 260.86 -20.7 L 260.86 -1.29 L 255.94 1.04 Z M 288.03 0 L 282.08 0 Q 274.32 0 274.32 -7.76 L 274.32 -7.76 L 274.32 -20.7 Q 274.32 -28.47 282.08 -28.47 L 282.08 -28.47 L 288.03 -28.47 Q 295.8 -28.47 295.8 -20.7 L 295.8 -20.7 L 295.8 -19.33 L 279.57 -6.78 Q 279.93 -4.66 282.08 -4.66 L 282.08 -4.66 L 288.03 -4.66 Q 290.62 -4.66 290.62 -7.76 L 290.62 -7.76 L 290.62 -9.14 L 295.54 -11.46 L 295.8 -11.46 L 295.8 -7.76 Q 295.8 0 288.03 0 L 288.03 0 Z M 279.49 -20.7 L 279.49 -12.19 L 290.59 -21.14 Q 290.44 -23.81 288.03 -23.81 L 288.03 -23.81 L 282.08 -23.81 Q 279.49 -23.81 279.49 -20.7 L 279.49 -20.7 Z" stroke-linecap="round" />
</g>
<g transform="matrix(1.9692780337941629 0 0 1.9692780337941629 640.5421664894245 284.03847032905884)" id="tagline-770ac3b1-e585-448f-8600-123d2bfe9fa4-logo-path"  >
<path style="stroke: none; stroke-width: 0; stroke-dasharray: none; stroke-linecap: butt; stroke-dashoffset: 0; stroke-linejoin: miter; stroke-miterlimit: 4; fill: rgb(12,60,100); fill-rule: nonzero; opacity: 1;"  paint-order="stroke"  transform=" translate(-26.055, 37.235)" d="M 16.8 0 L 4.71 0 Q 4.28 0 4.28 -0.54 L 4.28 -0.54 L 4.49 -74.04 Q 4.49 -74.47 4.92 -74.47 L 4.92 -74.47 L 26.54 -74.47 Q 32.31 -74.47 37.18 -71.64 Q 42.05 -68.8 44.94 -64.04 Q 47.83 -59.28 47.83 -53.29 L 47.83 -53.29 Q 47.83 -49.33 46.65 -46.17 Q 45.48 -43.01 43.87 -40.82 Q 42.27 -38.63 40.98 -37.56 L 40.98 -37.56 Q 46.76 -31.14 46.76 -22.47 L 46.76 -22.47 L 46.87 -0.54 Q 46.87 0 46.33 0 L 46.33 0 L 34.24 0 Q 33.81 0 33.81 -0.32 L 33.81 -0.32 L 33.81 -22.47 Q 33.81 -26.32 31.08 -29.16 Q 28.36 -31.99 24.4 -31.99 L 24.4 -31.99 L 17.33 -31.99 L 17.23 -0.54 Q 17.23 0 16.8 0 L 16.8 0 Z M 17.33 -61.63 L 17.33 -44.83 L 26.54 -44.83 Q 29.85 -44.83 32.42 -47.29 Q 34.99 -49.76 34.99 -53.29 L 34.99 -53.29 Q 34.99 -56.71 32.47 -59.17 Q 29.96 -61.63 26.54 -61.63 L 26.54 -61.63 L 17.33 -61.63 Z" stroke-linecap="round" />
</g>
</svg>